<?xml version="1.0" encoding="UTF-8" standalone="no"?>
<!-- Created with Inkscape (http://www.inkscape.org/) -->

<svg
   width="3.8282671mm"
   height="4.1138201mm"
   viewBox="0 0 3.828267 4.1138201"
   version="1.1"
   id="svg1"
   inkscape:version="1.3.2 (091e20e, 2023-11-25)"
   sodipodi:docname="education.svg"
   xmlns:inkscape="http://www.inkscape.org/namespaces/inkscape"
   xmlns:sodipodi="http://sodipodi.sourceforge.net/DTD/sodipodi-0.dtd"
   xmlns="http://www.w3.org/2000/svg"
   xmlns:svg="http://www.w3.org/2000/svg">
  <sodipodi:namedview
     id="namedview1"
     pagecolor="#ffffff"
     bordercolor="#000000"
     borderopacity="0.25"
     inkscape:showpageshadow="2"
     inkscape:pageopacity="0.0"
     inkscape:pagecheckerboard="0"
     inkscape:deskcolor="#d1d1d1"
     inkscape:document-units="mm"
     inkscape:zoom="8.9263034"
     inkscape:cx="10.138575"
     inkscape:cy="7.5619209"
     inkscape:window-width="1512"
     inkscape:window-height="920"
     inkscape:window-x="0"
     inkscape:window-y="34"
     inkscape:window-maximized="1"
     inkscape:current-layer="layer1" />
  <defs
     id="defs1" />
  <g
     inkscape:label="Layer 1"
     inkscape:groupmode="layer"
     id="layer1"
     transform="translate(-99.550913,-156.85934)">
    <path
       fill-rule="nonzero"
       fill="#000000"
       fill-opacity="1"
       d="m 103.2123,158.26356 h 0.0717 v -0.2577 h -1.20165 v -0.56775 h -0.17639 c -0.0331,-0.0455 -0.0758,-0.15158 0.011,-0.32108 h 0.0717 v -0.25769 h -1.98162 c -0.252177,0 -0.456127,0.18741 -0.456127,0.41892 v 2.02158 c 0,0.1819 0.0565,0.32109 0.166743,0.41479 0.119889,0.1006 0.260449,0.11162 0.307304,0.11162 0.01,0 0.0152,-10e-4 0.0152,-10e-4 h 0.80753 v 0.6215 c 0,0.1819 0.0551,0.32108 0.16674,0.41479 0.11851,0.10197 0.26045,0.11162 0.3073,0.11162 0.008,0 0.0138,-0.001 0.0152,-0.001 h 2.04225 v -2.38539 h -0.17776 c -0.0317,-0.0469 -0.0744,-0.15296 0.011,-0.32246 m -3.20532,-0.82544 c -0.09646,0 -0.175006,-0.0717 -0.175006,-0.15985 0,-0.0896 0.07855,-0.16123 0.175006,-0.16123 h 1.60817 c -0.0427,0.12953 -0.0372,0.23702 -0.0124,0.32108 z m 2.89251,1.1479 h -1.59577 c -0.0978,0 -0.17639,-0.073 -0.17639,-0.16123 0,-0.0896 0.0799,-0.16123 0.17639,-0.16123 h 1.60817 c -0.0441,0.12954 -0.0372,0.23703 -0.0124,0.32246"
       id="path326"
       style="stroke-width:0.352778" />
  </g>
</svg>
