<?xml version="1.0" encoding="UTF-8" standalone="no"?>
<!-- Created with Inkscape (http://www.inkscape.org/) -->

<svg
   width="3.8268099mm"
   height="2.9779401mm"
   viewBox="0 0 3.8268098 2.9779401"
   version="1.1"
   id="svg1"
   inkscape:version="1.3.2 (091e20e, 2023-11-25)"
   sodipodi:docname="experience.svg"
   xmlns:inkscape="http://www.inkscape.org/namespaces/inkscape"
   xmlns:sodipodi="http://sodipodi.sourceforge.net/DTD/sodipodi-0.dtd"
   xmlns="http://www.w3.org/2000/svg"
   xmlns:svg="http://www.w3.org/2000/svg">
  <sodipodi:namedview
     id="namedview1"
     pagecolor="#ffffff"
     bordercolor="#000000"
     borderopacity="0.25"
     inkscape:showpageshadow="2"
     inkscape:pageopacity="0.0"
     inkscape:pagecheckerboard="0"
     inkscape:deskcolor="#d1d1d1"
     inkscape:document-units="mm"
     inkscape:zoom="8.9263034"
     inkscape:cx="8.1220632"
     inkscape:cy="6.5536647"
     inkscape:window-width="1512"
     inkscape:window-height="920"
     inkscape:window-x="0"
     inkscape:window-y="34"
     inkscape:window-maximized="1"
     inkscape:current-layer="layer1" />
  <defs
     id="defs1" />
  <g
     inkscape:label="Layer 1"
     inkscape:groupmode="layer"
     id="layer1"
     transform="translate(-100.08002,-157.12392)">
    <path
       fill-rule="nonzero"
       fill="#000000"
       fill-opacity="1"
       d="m 102.51773,157.12392 c 0.0221,0.001 0.011,0 0.0317,0.003 0.0138,-0.003 0.007,-0.001 0.0207,-0.003 0.062,0 0.11162,0.0496 0.11162,0.11162 v 0.40652 h 0.96739 c 0.14193,0 0.25769,0.11576 0.25769,0.25769 v 1.94441 c 0,0.14332 -0.11576,0.2577 -0.25769,0.2577 h -3.31281 c -0.14194,0 -0.25631,-0.11438 -0.25631,-0.2577 v -1.94441 c 0,-0.14193 0.11437,-0.25769 0.25631,-0.25769 h 0.96876 v -0.40652 c 0,-0.062 0.0496,-0.11162 0.11025,-0.11162 0.0152,0.001 0.008,0 0.0221,0.003 0.0207,-0.003 0.01,-0.001 0.0317,-0.003 z m -0.0579,0.22186 h -0.93293 v 0.29628 h 0.93293 z m 0,0"
       id="path613"
       style="stroke-width:0.352778" />
  </g>
</svg>
