<?xml version="1.0" encoding="UTF-8" standalone="no"?>
<!-- Created with Inkscape (http://www.inkscape.org/) -->

<svg
   width="3.9618599mm"
   height="3.9591mm"
   viewBox="0 0 3.9618599 3.9591"
   version="1.1"
   id="svg1"
   inkscape:version="1.3.2 (091e20e, 2023-11-25)"
   sodipodi:docname="objective.svg"
   xmlns:inkscape="http://www.inkscape.org/namespaces/inkscape"
   xmlns:sodipodi="http://sodipodi.sourceforge.net/DTD/sodipodi-0.dtd"
   xmlns="http://www.w3.org/2000/svg"
   xmlns:svg="http://www.w3.org/2000/svg">
  <sodipodi:namedview
     id="namedview1"
     pagecolor="#ffffff"
     bordercolor="#000000"
     borderopacity="0.25"
     inkscape:showpageshadow="2"
     inkscape:pageopacity="0.0"
     inkscape:pagecheckerboard="0"
     inkscape:deskcolor="#d1d1d1"
     inkscape:document-units="mm"
     inkscape:zoom="8.9263034"
     inkscape:cx="8.3461201"
     inkscape:cy="8.4581485"
     inkscape:window-width="1512"
     inkscape:window-height="920"
     inkscape:window-x="0"
     inkscape:window-y="34"
     inkscape:window-maximized="1"
     inkscape:current-layer="layer1" />
  <defs
     id="defs1" />
  <g
     inkscape:label="Layer 1"
     inkscape:groupmode="layer"
     id="layer1"
     transform="translate(-100.0125,-156.63334)">
    <path
       fill-rule="nonzero"
       fill="#000000"
       fill-opacity="1"
       d="m 103.97436,158.44683 h -0.39274 c -0.0799,-0.74413 -0.67248,-1.34083 -1.41662,-1.41662 v -0.39687 h -0.34038 v 0.39274 c -0.74414,0.0799 -1.34083,0.67248 -1.41662,1.41662 h -0.3955 v 0.34038 h 0.39136 c 0.0799,0.74414 0.67249,1.34083 1.41663,1.41662 v 0.39274 h 0.34037 v -0.39274 c 0.74552,-0.0799 1.34083,-0.67248 1.41662,-1.41662 h 0.39275 v -0.33625 z m -1.98162,1.4249 c -0.69177,0 -1.25677,-0.565 -1.25677,-1.25677 0,-0.69178 0.565,-1.25677 1.25677,-1.25677 0.69315,0 1.25677,0.56499 1.25677,1.25677 0,0.69177 -0.56362,1.25677 -1.25677,1.25677 m 0,-2.2338 c -0.54019,0 -0.97565,0.43684 -0.97565,0.97703 0,0.54019 0.43546,0.97703 0.97565,0.97703 0.54019,0 0.97703,-0.43684 0.97703,-0.97703 0,-0.54019 -0.43684,-0.97703 -0.97703,-0.97703 m 0.0648,1.19338 -0.19293,0.18741 -0.18741,-0.19154 -0.18466,-0.18466 0.19293,-0.18742 0.18328,0.18328 0.43684,-0.43132 0.18741,0.19155 z m 0,0"
       id="path328"
       style="stroke-width:0.352778" />
  </g>
</svg>
