<?xml version="1.0" encoding="UTF-8" standalone="no"?>
<!-- Created with Inkscape (http://www.inkscape.org/) -->

<svg
   width="3.9618599mm"
   height="3.9591mm"
   viewBox="0 0 3.9618599 3.9591"
   version="1.1"
   id="svg1"
   inkscape:version="1.3.2 (091e20e, 2023-11-25)"
   sodipodi:docname="skills.svg"
   xmlns:inkscape="http://www.inkscape.org/namespaces/inkscape"
   xmlns:sodipodi="http://sodipodi.sourceforge.net/DTD/sodipodi-0.dtd"
   xmlns="http://www.w3.org/2000/svg"
   xmlns:svg="http://www.w3.org/2000/svg">
  <sodipodi:namedview
     id="namedview1"
     pagecolor="#ffffff"
     bordercolor="#000000"
     borderopacity="0.25"
     inkscape:showpageshadow="2"
     inkscape:pageopacity="0.0"
     inkscape:pagecheckerboard="0"
     inkscape:deskcolor="#d1d1d1"
     inkscape:document-units="mm"
     inkscape:zoom="8.9263034"
     inkscape:cx="8.3461201"
     inkscape:cy="8.4581485"
     inkscape:window-width="1512"
     inkscape:window-height="920"
     inkscape:window-x="0"
     inkscape:window-y="34"
     inkscape:window-maximized="1"
     inkscape:current-layer="layer1" />
  <defs
     id="defs1" />
  <g
     inkscape:label="Layer 1"
     inkscape:groupmode="layer"
     id="layer1"
     transform="translate(-100.0125,-156.63334)">
    <g
       id="g1"
       transform="translate(-0.15813503,-0.24983022)">
      <path
         fill-rule="nonzero"
         fill="#000000"
         fill-opacity="1"
         d="m 103.14891,158.3494 c 0.0482,-0.0951 0.04,-0.14883 -0.0234,-0.19292 -0.0648,-0.0455 -0.10198,-0.0303 -0.21084,0.0744 l -0.3514,-0.29352 c 0.0165,-0.0262 0.0303,-0.0537 0.0482,-0.0772 0.0165,-0.0207 0.0179,-0.0496 0.003,-0.0717 -0.0992,-0.22049 -0.32659,-0.35553 -0.56775,-0.33624 h -0.0551 c 0.0179,-0.0221 0.0317,-0.0427 0.0496,-0.0593 0.10059,-0.0978 0.22875,-0.14607 0.36656,-0.17363 0.1502,-0.0276 0.3073,0.01 0.42994,0.1006 0.0303,0.0221 0.0648,0.0427 0.0992,0.0592 0.0221,0.0124 0.0482,0.0179 0.0744,0.0179 0.0592,-0.004 0.11989,0.0152 0.16536,0.0551 0.0455,0.0345 0.091,0.0716 0.13229,0.11162 0.0234,0.0275 0.0413,0.0565 0.0551,0.0896 0.01,0.0207 0.0152,0.0427 0.0193,0.0648 0.0317,0.12264 0.113,0.15572 0.22048,0.0868 0.0937,0.0799 0.19017,0.15985 0.2825,0.24116 0.0413,0.033 0.0482,0.0923 0.0152,0.13367 -0.001,10e-4 -0.003,0.003 -0.004,0.004 -0.0193,0.0275 -0.0427,0.051 -0.0648,0.0758 l -0.26183,0.2825 c -0.0579,0.0634 -0.0965,0.0675 -0.16399,0.0152 -0.0854,-0.0689 -0.16949,-0.13781 -0.25769,-0.20809"
         id="path2505"
         style="stroke-width:0.352778" />
      <path
         fill-rule="nonzero"
         fill="#000000"
         fill-opacity="1"
         d="m 102.84437,158.33975 -0.16537,0.20947 -1.50757,1.90307 c -0.0593,0.0868 -0.17915,0.10886 -0.26596,0.0496 -0.008,-0.006 -0.0165,-0.0124 -0.0234,-0.0193 -0.0703,-0.0579 -0.14194,-0.11575 -0.21084,-0.17501 -0.0813,-0.0606 -0.0978,-0.17501 -0.0372,-0.25494 0.006,-0.007 0.011,-0.0138 0.0165,-0.0193 0.60082,-0.66698 1.20303,-1.33257 1.80385,-1.99816 0.004,-0.003 0.008,-0.007 0.0124,-0.01 z m 0,0"
         id="path2506"
         style="stroke-width:0.352778" />
      <path
         fill-rule="nonzero"
         fill="#000000"
         fill-opacity="1"
         d="m 104.01157,159.7674 c -0.0179,-0.0813 -0.0496,-0.15847 -0.0923,-0.23013 -0.18328,-0.28112 -0.54708,-0.38034 -0.84612,-0.23289 -0.01,0.004 -0.0193,0.004 -0.0276,0 -0.12127,-0.0772 -0.24391,-0.15158 -0.36105,-0.23426 -0.0372,-0.0262 -0.0744,-0.0538 -0.11162,-0.0813 l -0.29903,0.35829 c 0.0565,0.0496 0.113,0.10198 0.16674,0.15572 0.0896,0.0882 0.17363,0.18328 0.25769,0.27561 0.01,0.011 0.0138,0.0234 0.0124,0.0372 -0.011,0.0882 -0.004,0.17638 0.0207,0.26182 0.0496,0.19017 0.18465,0.34727 0.36518,0.42582 0.15985,0.0744 0.34313,0.0799 0.50574,0.0124 0.007,-0.003 0.0124,-0.007 0.0179,-0.0124 -0.004,-0.004 -0.008,-0.008 -0.0124,-0.0124 -0.12403,-0.10335 -0.24943,-0.20533 -0.37345,-0.30868 -0.008,-0.007 -0.0152,-0.0165 -0.0179,-0.0275 -0.004,-0.0813 -0.007,-0.16261 -0.01,-0.24392 0,-0.008 0.003,-0.0179 0.01,-0.0234 0.0345,-0.0455 0.0717,-0.0896 0.10887,-0.13367 0.006,-0.007 0.0138,-0.011 0.0234,-0.0124 0.0772,-0.0124 0.15434,-0.0248 0.23151,-0.0345 0.0138,-10e-4 0.0276,0.003 0.0372,0.01 0.0951,0.0785 0.19016,0.15709 0.28387,0.23702 0.0345,0.0275 0.0675,0.0579 0.10473,0.0909 0.004,-0.0152 0.006,-0.0221 0.006,-0.0303 0.006,-0.0386 0.01,-0.0786 0.0138,-0.11851 l -0.01,-0.11163 c -0.003,-0.005 -0.004,-0.011 -0.004,-0.0165"
         id="path2507"
         style="stroke-width:0.352778" />
      <path
         fill-rule="nonzero"
         fill="#000000"
         fill-opacity="1"
         d="m 101.6,158.09722 c -0.0289,-0.0331 -0.0468,-0.062 -0.022,-0.10473 10e-4,-0.003 0.003,-0.007 0.003,-0.011 0.0675,-0.27698 -0.0482,-0.56499 -0.28939,-0.71658 -0.16536,-0.1061 -0.36931,-0.13091 -0.55534,-0.0689 -0.01,0.003 -0.0207,0.01 -0.0358,0.0152 l 0.0482,0.0427 c 0.11024,0.0978 0.22048,0.19568 0.33073,0.2949 0.008,0.006 0.0124,0.0152 0.0138,0.0248 0.001,0.0799 0.003,0.15985 0.003,0.24116 0,0.01 -0.004,0.0193 -0.01,0.0262 -0.0372,0.0413 -0.073,0.0841 -0.10886,0.12403 -0.008,0.008 -0.0193,0.0152 -0.0303,0.0165 -0.0758,0.011 -0.15021,0.0193 -0.22738,0.0289 -0.0152,0.003 -0.0303,-0.003 -0.0427,-0.0138 l -0.30316,-0.27285 c -0.0234,-0.0193 -0.0469,-0.04 -0.0744,-0.0634 l -0.0221,0.14608 0.007,0.11575 c 0.003,0.005 0.003,0.01 0.006,0.0152 0.0138,0.0551 0.0317,0.11024 0.051,0.16261 0.0703,0.16398 0.20533,0.28939 0.37345,0.34726 0.13918,0.0524 0.29215,0.0538 0.43133,0.004 0.011,-0.004 0.0234,-0.004 0.0344,0 0.0469,0.0303 0.0951,0.0593 0.13918,0.0937 0.0785,0.0606 0.15986,0.12127 0.2384,0.18603 l 0.31006,-0.3514 c -0.0937,-0.0896 -0.18327,-0.18328 -0.26733,-0.2825"
         id="path2508"
         style="stroke-width:0.352778" />
    </g>
  </g>
</svg>
